<svg width="18" height="18" viewBox="0 0 18 18" fill="none" xmlns="http://www.w3.org/2000/svg">
<path d="M12.4573 8.96292L17.3435 4.07669C17.9431 3.47708 17.9431 2.50491 17.3435 1.90482L16.2575 0.818878C15.6579 0.219269 14.6858 0.219269 14.0857 0.818878L9.19944 5.70511L4.31321 0.818878C3.7136 0.219269 2.74143 0.219269 2.14133 0.818878L1.0554 1.90482C0.455788 2.50442 0.455788 3.47659 1.0554 4.07669L5.94163 8.96292L1.0554 13.8492C0.455788 14.4488 0.455788 15.4209 1.0554 16.021L2.14133 17.107C2.74094 17.7066 3.7136 17.7066 4.31321 17.107L9.19944 12.2207L14.0857 17.107C14.6853 17.7066 15.6579 17.7066 16.2575 17.107L17.3435 16.021C17.9431 15.4214 17.9431 14.4492 17.3435 13.8492L12.4573 8.96292Z" fill="#901C1C"/>
</svg>
